<?xml version="1.0" encoding="utf-8"?>
<!-- Generator: Adobe Illustrator 19.2.0, SVG Export Plug-In . SVG Version: 6.00 Build 0)  -->
<svg version="1.1" id="Capa_1" xmlns="http://www.w3.org/2000/svg" xmlns:xlink="http://www.w3.org/1999/xlink" x="0px" y="0px"
	 viewBox="0 0 240.7 240.7" style="enable-background:new 0 0 240.7 240.7;" xml:space="preserve">
<style type="text/css">
	.st0{fill:#FFFFFF;}
</style>
<g>
	<g>
		<path class="st0" d="M239.4,122.7c-11-1.7-17.4,6.3-24.9,15.7c-1.7,2.1-3.3,4.4-4.9,6.6c-0.2,0.2-0.4,0.5-0.5,0.7
			c0.7-5.6-1.2-10.6-5.7-14.7c0.2-0.4,0.5-0.8,0.6-1.3c0.4-1.8,0.2-3.6-0.7-5.2c-1.9-3.1-6.2-4.2-9.4-2.4c-1.6,0.9-2.7,2.4-3.1,4.2
			c-0.5,1.8-0.2,3.6,0.7,5.2c1.2,2.1,3.5,3.3,5.9,3.3c1.2,0,2.4-0.3,3.5-1c0.2-0.1,0.4-0.4,0.6-0.5c5.7,5.4,6.1,12.6,1.3,20.5
			c-5.2,5.9-11.3,10.5-20.4,10.5c-0.1,0-0.1,0-0.2,0c-4.5,0-8.7-1.6-11.9-4.3c4.8-2.9,9-6.9,12.1-11.7c5.8-8.7,7.9-19.2,5.8-29.5
			c-0.1-0.4-0.3-0.8-0.7-1c3.1-0.3,7.2-0.7,7.5-7.1c0.1-2.5-1.7-4.9,2.4-11.4c0,0-4.8-0.3-8.6,3.4c-0.6-4.5-3.9-6-2.7-10.5
			c0,0-8.9,2.9-6,11.8c-4.7-2.7-9.4-1.1-9.4-1.1c5.6,5.2,4.5,8,5.3,10.4c2,6.3,6.4,5.3,9.5,4.8c-0.4,0.4-0.7,0.8-0.5,1.4
			c1.9,9.5,0,19.1-5.4,27.1c-3.1,4.7-7.2,8.3-11.9,11.1c-3.7-4.4-5.4-10.4-4.8-16.7c1.2-2.8,1.8-5.8,1.8-8.9
			c2.6-1.4,8.2-5.6,0.2-12.4c-1.4-1.2-4.7-3.8-6.2-7.9c0,0-8.8,18.7,2.8,20.5c-0.1,4-1.4,8-3.8,11.5c-3.3,4.8-8.4,8.2-14.3,9.3
			c-4.7,0.9-9.5,0-13.4-2.6c-2.7-1.8-4.7-4.2-5.9-7c-0.5-1.3-1-2.7-1.3-4.1c0,0,0,0,0,0c-0.5-3.3,0.2-6.7,2.1-9.6
			c2.1-3,5.2-5,8.8-5.7c2.8-0.6,5.7,0,8.1,1.6c2.3,1.5,3.8,3.8,4.4,6.5c0.9,4.3-2.1,8.5-6.5,9.4c-0.8,0.2-1.4,1-1.2,1.8
			c0.2,0.8,0.9,1.4,1.8,1.2c6.1-1.2,10.1-7.1,9-13.1c-0.7-3.5-2.7-6.5-5.7-8.5c-3.1-2.1-6.8-2.8-10.4-2c-4.4,0.9-8.2,3.4-10.7,7
			v-2.6c2-1.3,14-9.4,13.8-21.4c-0.1-3.7-2.5-7.1-4.7-10.1c-1.9-2.6-3.7-5.1-3.4-7c0.3-1.6,1.5-2.2,3.4-2.9c1.5-0.6,3.6-1.4,3.5-3.6
			c-0.1-4.7-6.3-8.2-14.4-8.2l-0.5,0c-5.3,0.1-10.2,1.8-12.7,4.4c-1.3,1.3-1.9,2.8-1.9,4.4c0,2.3,2.2,3,3.7,3.5
			c1.9,0.7,3.1,1.2,3.5,2.8c0.4,1.9-1.3,4.5-3.1,7.2c-2,3.1-4.3,6.6-4.3,10.3c0.2,10.9,10.4,18.2,13.9,20.4v4.1
			c-2.4-4-6.3-7.1-11.3-8.1c-3.6-0.7-7.3,0-10.3,1.9c-3.1,2-5.1,5-5.8,8.5c-0.6,2.9,0,5.9,1.7,8.4c1.7,2.5,4.3,4.1,7.2,4.7
			c0.9,0.1,1.7-0.4,1.8-1.2c0.2-0.8-0.4-1.7-1.2-1.8c-2.2-0.4-4-1.7-5.3-3.4c-1.2-1.8-1.7-3.9-1.2-6c0.5-2.7,2.1-5,4.5-6.5
			c2.4-1.5,5.2-2.1,8-1.5c7.3,1.5,12,8.3,10.9,15.3c0,0,0,0,0,0c-0.3,1.4-0.8,2.8-1.3,4.1c-3.3,7-11.2,11.2-19.3,9.6
			c-10.4-2.1-17.7-10.9-18-20.8c11.6-1.8,2.8-20.5,2.8-20.5c-1.4,4.1-4.7,6.7-6.2,7.9c-8,6.8-2.4,10.9,0.2,12.3
			c0.1,2.6,0.6,5,1.4,7.4c-0.4,0.3-0.7,0.8-0.6,1.3c0.7,6.1-1,12.1-4.5,16.5c-12.5-7.7-19.6-22.6-16.5-37.8c0.1-0.6-0.2-1.1-0.6-1.4
			c3.1,0.5,7.5,1.6,9.6-4.8c0.8-2.4-0.4-5.2,5.3-10.4c0,0-4.6-1.6-9.4,1.1c2.9-8.8-6-11.8-6-11.8c1.3,4.5-2,6-2.7,10.5
			c-3.8-3.7-8.6-3.4-8.6-3.4c4.1,6.5,2.3,8.9,2.5,11.4c0.3,6.4,4.4,6.8,7.5,7.1c-0.4,0.2-0.6,0.6-0.7,1
			c-3.2,16.3,4.2,32.3,17.4,40.7c-3.4,3-7.7,4.7-12.4,4.8c-0.1,0-0.1,0-0.2,0c-9.1,0-15.2-4.6-20.4-10.5c-4.8-7.9-4.4-15.1,1.3-20.5
			c0.2,0.1,0.3,0.4,0.6,0.5c1.1,0.6,2.3,0.9,3.5,0.9c2.4,0,4.6-1.3,5.9-3.3c0.9-1.6,1.2-3.4,0.7-5.2c-0.4-1.8-1.6-3.3-3.1-4.2
			c-3.1-1.9-7.5-0.7-9.4,2.4c-0.9,1.6-1.2,3.4-0.7,5.2c0.1,0.4,0.4,0.8,0.6,1.3c-4.4,4.1-6.4,9.2-5.7,14.7c-0.2-0.2-0.3-0.5-0.5-0.7
			c-1.6-2.3-3.3-4.5-4.9-6.6C18.7,129,12.3,121,1.3,122.7c-0.9,0.1-1.4,0.9-1.3,1.8c0.1,0.9,0.9,1.4,1.8,1.3
			c7.8-1.3,12.7,3.2,19.6,11.6c-5.6-2.4-11.4-1.9-16.8,1.8c-0.7,0.5-0.9,1.5-0.4,2.2c0.5,0.7,1.5,0.9,2.2,0.4
			c6.9-4.8,14.5-3.4,21.3,4c0.1,0.1,0.2,0,0.2,0.1c0.2,0.4,0.5,0.7,0.7,1c0.6,0.8,1.2,1.6,1.7,2.4c-1.7-0.6-3.4-0.9-5.3-0.7
			c-0.1-0.5-0.1-1.1-0.3-1.6c-0.8-1.7-2.5-2.8-3.8-3C6,141.2,4.8,165.8,4.7,166.8c0,0.6,0.3,1.1,0.8,1.4c0.2,0.1,0.5,0.2,0.8,0.2
			s0.5-0.1,0.8-0.2c4.4-2.6,7-3.2,9.6-3.2c6.5-0.2,11.9-0.8,13.2-6.8c0.5-2.4,0.2-4.5-1-6.1c3.7,1,7,4.2,10.8,8.2
			c0.1,0.1,0.4,0.1,0.6,0.2c4.8,4.1,10.6,7,18.2,7c0.1,0,0.1,0,0.2,0c5.8,0,11.1-2.3,15.1-6.2c3.3,1.7,6.8,3,10.6,3.8
			c2.1,0.4,4.2,0.6,6.2,0.6c12.6,0,24-7.6,29-19.2l-0.1,14.3c0,0.9,0.7,1.6,1.6,1.6c0.9,0,1.6-0.7,1.6-1.6v-13.1
			c5.3,10.8,16.3,17.9,28.4,17.9c2.1,0,4.1-0.2,6.2-0.6c3.5-0.7,6.8-1.9,10-3.4c4,3.7,9.1,5.8,14.8,5.9c0.1,0,0.1,0,0.2,0
			c7.7,0,13.4-2.9,18.2-7c0.2-0.1,0.4-0.1,0.6-0.2c3.7-4,7.1-7.2,10.8-8.2c-1.2,1.6-1.5,3.6-1,6.1c1.3,6,6.7,6.6,13.2,6.8
			c2.6,0.1,5.2,0.7,9.6,3.3c0.2,0.1,0.5,0.2,0.8,0.2c0.3,0,0.6-0.1,0.8-0.2c0.5-0.3,0.8-0.8,0.8-1.4c0-1-1.1-25.6-16.2-22.8
			c-1.2,0.2-3,1.4-3.8,3c-0.2,0.5-0.2,1-0.3,1.6c-1.9-0.2-3.6,0.1-5.3,0.6c0.6-0.8,1.2-1.6,1.7-2.4c0.2-0.3,0.5-0.6,0.7-1
			c0.1,0,0.2,0,0.2-0.1c6.9-7.4,14.4-8.8,21.3-4c0.7,0.5,1.7,0.3,2.2-0.4c0.5-0.7,0.3-1.7-0.4-2.2c-5.4-3.7-11.2-4.3-16.8-1.8
			c6.8-8.3,11.8-12.9,19.6-11.6c0.9,0.1,1.6-0.5,1.8-1.3C240.8,123.6,240.2,122.8,239.4,122.7z M201,129c-0.2,1-0.9,1.8-1.7,2.3
			c-1.7,1-4.1,0.4-5.1-1.3c-0.5-0.9-0.6-1.9-0.4-2.8c0.2-1,0.9-1.8,1.7-2.3c0.6-0.3,1.2-0.5,1.9-0.5c1.3,0,2.5,0.7,3.2,1.8
			C201,127,201.2,128,201,129z M40.1,126.1c0.7-1.1,1.9-1.8,3.2-1.8c0.7,0,1.3,0.2,1.9,0.5c0.9,0.5,1.5,1.3,1.7,2.3
			c0.2,1,0.1,2-0.4,2.8c-1,1.7-3.4,2.3-5.1,1.3c-0.9-0.5-1.5-1.3-1.7-2.3C39.5,128,39.6,127,40.1,126.1z M26.8,157.4
			c-0.6,2.8-2.2,4.1-10.3,4.3c-2.2,0.1-4.7,0.4-8.5,2.3c0.7-5.5,3-17.2,10.7-17.2c0.5,0,1.1,0.1,1.6,0.1c0.3,0.1,1.2,0.6,1.6,1.4
			c0.1,0.3,0.2,0.5,0.1,0.8c-2.5,0.9-5.2,2.5-8.1,5.3c-0.6,0.6-0.7,1.6-0.1,2.2c0.6,0.6,1.6,0.7,2.2,0.1c2.6-2.4,5-3.9,7.1-4.6
			c0.2,0,2.1,0.3,3.1,1.7C27,154.7,27.1,155.9,26.8,157.4z M84.9,162c-3.2-0.6-6.3-1.7-9.1-3.2c3-3.9,4.7-8.7,4.9-13.9
			c3.6,5.6,9.4,9.9,16.6,11.4c1.4,0.3,2.8,0.4,4.1,0.4c2.9,0,5.8-0.7,8.3-1.8C103.4,160.9,94.2,163.9,84.9,162z M119.6,121.4
			c-3.9-2.8-10.6-8.7-10.8-16.6c0-2.8,1.9-5.7,3.8-8.5c2.2-3.3,4.2-6.4,3.5-9.5c-0.7-3.5-3.6-4.4-5.6-5.1c-0.6-0.2-1.4-0.5-1.6-0.6
			c0-0.7,0.3-1.4,1-2.1c1.9-2,6.1-3.4,10.5-3.5l0.4,0c6.6,0,11.2,2.7,11.3,5c-0.2,0.2-1,0.5-1.6,0.7c-1.9,0.7-4.7,1.8-5.3,5.3
			c-0.6,3.2,1.6,6.2,3.9,9.4c2,2.7,4,5.6,4.1,8.3c0.1,8.3-7.1,14.8-10.7,17.5V113c3.3-0.8,5.8-3.6,5.7-7.1c-0.1-4-3.3-7.1-7.4-7.1
			c-4,0.1-7.2,3.4-7.1,7.4c0.1,3.4,2.5,6.1,5.7,6.8L119.6,121.4L119.6,121.4z M121.8,110.1c-0.2-0.1-0.4-0.3-0.6-0.3
			c-0.2,0-0.4,0.1-0.6,0.3c-2-0.3-3.5-1.9-3.6-4c0-2.3,1.8-4.2,4.2-4.3c2.3,0,4.1,1.8,4.2,4.1C125.3,108.1,123.8,109.8,121.8,110.1z
			 M156.7,162c-9.2,1.9-18.3-1.1-24.8-7c2.6,1.1,5.3,1.7,8.1,1.7c1.4,0,2.8-0.1,4.2-0.4c6.4-1.3,11.8-4.8,15.6-9.9
			c0.5,4.8,2.3,9.2,5.1,12.8C162.4,160.4,159.7,161.4,156.7,162z M214.3,153.9c1-1.4,2.9-1.7,3.1-1.7c2.2,0.7,4.5,2.1,7.1,4.5
			c0.7,0.6,1.6,0.5,2.2-0.1c0.6-0.6,0.5-1.6-0.1-2.2c-2.9-2.7-5.6-4.4-8.1-5.2c0-0.3,0-0.5,0.2-0.8c0.4-0.8,1.3-1.3,1.6-1.4
			c0.6-0.1,1.1-0.2,1.6-0.2c7.7,0,10,11.7,10.7,17.2c-3.8-1.9-6.3-2.2-8.5-2.3c-8-0.2-9.7-1.5-10.3-4.3
			C213.5,155.9,213.7,154.7,214.3,153.9z"/>
	</g>
</g>
</svg>
