<?xml version="1.0" encoding="utf-8"?>
<!-- Generator: Adobe Illustrator 19.2.0, SVG Export Plug-In . SVG Version: 6.00 Build 0)  -->
<svg version="1.1" id="Capa_1" xmlns="http://www.w3.org/2000/svg" xmlns:xlink="http://www.w3.org/1999/xlink" x="0px" y="0px"
	 viewBox="0 0 190.8 190.8" style="enable-background:new 0 0 190.8 190.8;" xml:space="preserve">
<style type="text/css">
	.st0{fill:#FFFFFF;}
</style>
<g>
	<g>
		<path class="st0" d="M186.1,79.5c-4.9-5.8-11.7-8.3-15.1-5.4c-1.7,1.4-0.9,3.4-0.4,4.8c0.7,1.8,1,2.9,0,4.1
			c-1.1,1.4-3.9,1.6-6.9,1.9c-3.5,0.3-7.4,0.7-10.1,3c-7.3,6.1-7.2,16.7-6.8,21.2c-3.3,0.4-7.3,0.3-12-0.2c5.9-2.3,9.8-7,11-13.7
			c0.1-0.9-0.4-1.7-1.3-1.8c-0.9-0.2-1.7,0.4-1.8,1.3c-1.5,8.5-8,13.1-18.3,12.9c-0.1,0-0.1,0.1-0.2,0.1c-0.4-0.1-0.8-0.1-1.2-0.2
			c-3.2-0.5-6.5-1-9.9-1.2c5.2-2.2,8.7-6.1,11.4-10.5c0.2-0.2,0.4-0.4,0.5-0.7c0.1-0.2,0.1-0.4,0.2-0.6c1.5-2.6,2.8-5.4,4-8
			c0.1-0.3,0.2-0.5,0.4-0.8c0.1-0.1,0.1-0.1,0.2-0.2c4.2-6.7,9.7-9,15.8-6.4c0.8,0.3,1.7,0,2.1-0.8c0.3-0.8,0-1.7-0.8-2
			c-4.5-1.9-8.8-1.7-12.6,0.5c1.6-2.6,3.2-5.2,4.5-7c0.3,0.5,0.6,0.9,1.1,1.3c0.8,0.7,1.7,1.2,2.7,1.4c1.3,0.3,2.7,0.2,3.9-0.3
			c0.6,1.2,1.5,2.1,2.7,2.7c0.9,0.4,1.8,0.6,2.8,0.6c0,0,0.2,0,0.3,0c1.3-0.1,2.5-0.5,3.5-1.3c1,0.6,2.2,1,3.5,1c0,0,0,0,0,0
			c1,0,2-0.3,3-0.9c1.2-0.7,2-1.7,2.5-3c1.2,0.4,2.6,0.4,3.9,0c1-0.4,1.9-0.9,2.6-1.7c0.9-0.9,1.4-2.1,1.6-3.4
			c1.3-0.3,2.4-0.9,3.3-1.9c0.7-0.8,1.2-1.7,1.4-2.7c0.3-1.3,0.2-2.7-0.3-3.8c1.2-0.6,2.1-1.5,2.7-2.7c0.5-0.9,0.7-2,0.6-3
			c-0.1-1.3-0.5-2.5-1.3-3.5c0.7-1.1,1-2.3,1-3.6c-0.1-1.1-0.4-2.1-0.9-2.9c-0.7-1.2-1.7-2-3-2.5c0.4-1.2,0.4-2.6,0-3.9
			c-0.3-1-0.9-1.9-1.7-2.6c-0.9-0.9-2.1-1.4-3.4-1.6c-0.3-1.2-0.9-2.4-1.9-3.2c-0.8-0.7-1.7-1.2-2.7-1.5c-1.3-0.3-2.7-0.2-3.9,0.3
			c-0.6-1.2-1.5-2.1-2.7-2.7c-0.9-0.4-1.8-0.7-3-0.6c-1.3,0.1-2.5,0.5-3.5,1.3c-1-0.6-2.2-1-3.6-1c0,0,0,0,0,0
			c-1,0.1-2.1,0.4-2.9,0.9c-1.1,0.7-2,1.8-2.5,3c-1.2-0.4-2.7-0.4-3.9,0c-1,0.3-1.9,0.9-2.6,1.7c-0.9,1-1.4,2.1-1.6,3.4
			c-1.2,0.3-2.4,0.9-3.2,1.9c-0.7,0.8-1.2,1.7-1.5,2.7c-0.3,1.3-0.2,2.7,0.3,3.9c-1.2,0.6-2.1,1.5-2.7,2.7c-0.4,0.9-0.7,2-0.7,3
			c0.1,1.3,0.5,2.5,1.3,3.5c-0.7,1.1-1,2.3-1,3.6c0.1,1.1,0.4,2.1,0.9,2.9c0.7,1.2,1.7,2,3,2.5c-0.4,1.2-0.4,2.6,0,3.8
			c0.3,1,0.9,1.9,1.7,2.6c0.6,0.5,1.3,0.9,2,1.2c-2.2,2.9-5.4,8.1-7.2,11.7c-0.9,1.8-1.8,3.8-2.7,5.7c-0.4-3-1.8-5.7-4-7.8
			c2.9-0.4,6.8-2.1,8.3-8.2c1.9-7.9-3.3-12.2-13.5-17.4c-3.7-1.9-7-4.5-11.5-11.3c-0.1-0.1-0.2-0.1-0.2-0.2
			c-0.1-0.1-0.1-0.1-0.2-0.2c-0.3-0.2-0.6-0.3-1-0.3l0,0c0,0,0,0,0,0s0,0,0,0c-0.4,0-0.7,0.2-0.9,0.5c-0.1,0.1-0.1,0.1-0.2,0.2
			c-0.1,0.1-0.1,0.1-0.2,0.2c-0.4,0.9-9,21.2-3.1,33.4c2,4.1,5.3,6.8,10,8c0.4,0.1,0.9,0.2,1.5,0.2c1.7,0,4.1-0.6,5.8-2.3
			c0.6-0.6,1-1.3,1.3-2c5,3.3,6.4,8.7,3.9,15.5c-3.1,5.5-7.2,9.8-14.3,11.2c-3.6,0.7-7.1,0-10.2-1.7c3.5-3.4,5.8-8,6.2-13.3
			c0.1-0.9-0.6-1.6-1.4-1.7c-0.8-0.1-1.6,0.6-1.7,1.4c-0.4,4.7-2.5,8.8-5.6,11.7c-3.2-2.9-5.2-7-5.6-11.7c-0.1-0.9-0.8-1.5-1.7-1.4
			c-0.9,0.1-1.5,0.8-1.4,1.7c0.4,5.3,2.7,9.9,6.2,13.3c-3,1.7-6.5,2.4-10.2,1.7c-7.1-1.4-11.2-5.7-14.3-11.2
			c-2.5-6.8-1.1-12.2,3.9-15.5c0.3,0.7,0.7,1.4,1.3,2c1.7,1.7,4.1,2.3,5.8,2.3c0.6,0,1-0.1,1.4-0.2c4.7-1.2,8-4,10-8
			c5.9-12.2-2.8-32.6-3.1-33.4c0-0.1-0.1-0.1-0.2-0.2c0-0.1-0.1-0.1-0.2-0.2c-0.2-0.3-0.5-0.5-0.9-0.5c0,0,0,0,0,0s0,0,0,0l0,0
			c-0.3,0-0.6,0.1-0.9,0.3c-0.1,0.1-0.2,0.1-0.3,0.2c-0.1,0.1-0.1,0.1-0.2,0.2c-4.5,6.7-7.9,9.4-11.5,11.3
			C63.2,56.7,58,61,59.9,68.9c1.5,6.2,5.4,7.9,8.3,8.2c-2.2,2.2-3.6,4.8-4,7.8c-0.9-2-1.8-3.9-2.7-5.7c-1.8-3.6-5.1-8.8-7.2-11.7
			c0.7-0.3,1.4-0.6,2-1.2c0.8-0.7,1.4-1.6,1.7-2.6c0.4-1.3,0.4-2.6,0-3.8c1.2-0.5,2.2-1.3,2.9-2.5c0.5-0.9,0.9-1.9,0.9-3
			c0.1-1.3-0.3-2.5-1-3.6c0.8-1,1.2-2.2,1.3-3.5c0-1-0.2-2.1-0.6-3c-0.6-1.2-1.5-2.2-2.7-2.7c0.5-1.2,0.6-2.5,0.3-3.8
			c-0.2-1-0.7-2-1.4-2.7c-0.8-0.9-1.9-1.6-3.2-1.8c-0.1-1.3-0.7-2.5-1.6-3.4c-0.7-0.8-1.6-1.4-2.6-1.7c-1.2-0.4-2.6-0.4-3.9,0
			c-0.5-1.2-1.4-2.3-2.5-3c-0.9-0.5-1.9-0.9-3.2-0.9c-1.2,0-2.3,0.3-3.3,1c-1-0.8-2.3-1.2-3.8-1.3c-1,0-1.9,0.2-2.7,0.6
			c-1.2,0.6-2.2,1.5-2.7,2.7c-1.2-0.5-2.6-0.6-3.9-0.3c-1,0.2-1.9,0.7-2.7,1.4c-0.9,0.9-1.6,2-1.9,3.2c-1.3,0.2-2.4,0.7-3.4,1.6
			c-0.8,0.7-1.4,1.6-1.7,2.6c-0.4,1.3-0.4,2.6,0,3.9c-1.2,0.5-2.2,1.3-2.9,2.5c-0.5,0.9-0.9,1.9-0.9,3c-0.1,1.3,0.3,2.5,1,3.6
			c-0.8,1-1.2,2.2-1.3,3.5c0,1.1,0.2,2.1,0.6,3c0.6,1.2,1.6,2.2,2.7,2.8c-0.5,1.2-0.6,2.5-0.3,3.9c0.2,1,0.7,1.9,1.4,2.7
			c0.8,0.9,1.9,1.6,3.2,1.8c0.2,1.3,0.7,2.5,1.6,3.4c0.7,0.8,1.6,1.3,2.6,1.7c1.3,0.4,2.6,0.4,3.9,0c0.5,1.2,1.4,2.2,2.5,3
			c0.9,0.6,1.9,0.9,3.2,0.9c1.2,0,2.3-0.3,3.3-1c1,0.8,2.2,1.2,3.5,1.3c0,0,0.2,0,0.2,0c1,0,1.9-0.2,2.8-0.6
			c1.2-0.6,2.2-1.6,2.7-2.7c1.2,0.5,2.6,0.6,3.9,0.3c1-0.2,1.9-0.7,2.7-1.4c0.4-0.4,0.8-0.8,1.1-1.3c1.3,1.8,2.9,4.3,4.5,7
			c-3.8-2.2-8.2-2.4-12.6-0.5c-0.8,0.4-1.2,1.3-0.8,2c0.3,0.8,1.3,1.2,2,0.8c6-2.6,11.6-0.4,15.8,6.4c0,0.1,0.1,0.1,0.2,0.2
			c0.1,0.3,0.2,0.5,0.4,0.8c1.2,2.7,2.5,5.4,4,8c0.1,0.2,0.1,0.4,0.2,0.6c0.1,0.3,0.3,0.5,0.6,0.7c2.7,4.4,6.2,8.3,11.4,10.5
			c-3.3,0.3-6.7,0.8-9.9,1.2c-0.4,0.1-0.8,0.1-1.2,0.2c-0.1,0-0.1-0.1-0.2-0.1C56,107.8,49.4,103.3,48,94.7
			c-0.1-0.8-0.9-1.4-1.8-1.3c-0.9,0.1-1.4,0.9-1.3,1.8c1.2,6.7,5.1,11.4,11,13.7c-4.7,0.4-8.6,0.6-12,0.2c0.4-4.5,0.5-15.1-6.8-21.2
			c-2.7-2.3-6.6-2.6-10.1-3c-3-0.3-5.8-0.5-6.9-1.9c-0.9-1.2-0.6-2.3,0.1-4.1c0.5-1.4,1.3-3.4-0.4-4.8c-3.4-2.8-10.2-0.3-15.1,5.4
			c-5,6-6.2,12.9-2.8,15.8c1.4,1.1,3.2,0.5,4.8-0.4c1.3-0.8,2.7-1.5,4-0.8c1.5,0.9,2.3,3.6,3.1,6.5c0.9,3.3,1.9,7.1,4.6,9.4
			c3.4,2.8,7.8,4.3,13.2,4.3c5.9,0,10.8-1.8,11-1.8c0.2-0.1,0.4-0.2,0.5-0.4c5,0.7,10.6,0.2,16.7-0.4c2.7-0.3,5.6-0.7,8.4-1.2
			c0.4,0,0.8-0.1,1.1-0.2c-3.8,2.8-6.1,6.7-6.8,11.4c-1.9-2.5-4.9-4.7-9.2-4.7c-1.7,0-3.6,0.4-5.6,1c-9.5,3.4-10.5,11.5-8.9,26.2
			c0.5,5.3,0.1,10.8-4,20.5c0,0.1,0,0.2,0,0.3c0,0.1,0,0.2,0,0.3c0,0.4,0.1,0.7,0.3,1h0c0,0,0,0,0,0c0.3,0.4,0.8,0.6,1.2,0.6
			c0.1,0,0.2,0,0.3,0c1.2-0.2,28.9-5.2,37.8-19.9c2.9-4.9,3.5-10.3,1.6-16c-0.8-2.5-4.3-6.1-8.6-6.1c-0.6,0-1.2,0.2-1.8,0.3
			c-0.3-8.2,4.7-13.9,14.2-16c4.1-0.2,8.1,0,11.9,1.2c-1.9,1.2-3.7,2.5-5.4,4.3c-4.6,4.7-6.8,10.8-6.4,17.2
			c0.5,7,4.2,13.7,10.3,18.4c0.3,0.2,0.6,0.3,0.9,0.3c0.5,0,0.9-0.2,1.2-0.6c0.5-0.7,0.4-1.7-0.3-2.2c-5.3-4.2-8.6-10.1-9.1-16.2
			c-0.4-5.5,1.6-10.7,5.5-14.8c2.2-2.2,4.5-3.8,6.9-5c2.4,1.2,4.7,2.8,6.9,5c3.9,4.1,5.9,9.3,5.5,14.8c-0.4,6.1-3.7,12.1-9.1,16.2
			c-0.7,0.5-0.8,1.5-0.3,2.2c0.3,0.4,0.8,0.6,1.2,0.6c0.3,0,0.7-0.1,0.9-0.3c6-4.7,9.8-11.4,10.3-18.4c0.5-6.4-1.8-12.5-6.4-17.2
			c-1.7-1.8-3.5-3.1-5.4-4.3c3.8-1.2,7.8-1.4,11.9-1.2c9.4,2.2,14.5,7.8,14.2,16c-0.6-0.1-1.2-0.3-1.9-0.3c-4.2,0-7.8,3.6-8.6,6.1
			c-1.9,5.7-1.4,11.1,1.6,16c8.8,14.7,36.6,19.7,37.8,19.9c0.1,0,0.2,0,0.3,0c0,0,0.1,0,0.1,0c0.9,0,1.6-0.7,1.6-1.6
			c0-0.4-0.1-0.7-0.4-1c-3.9-9.4-4.4-14.8-3.8-20.1c1.5-14.7,0.6-22.8-8.9-26.2c-1.9-0.7-3.8-1-5.5-1c-4.3,0-7.3,2.2-9.2,4.7
			c-0.7-4.7-3-8.6-6.8-11.4c0.4,0.1,0.8,0.1,1.1,0.2c2.8,0.4,5.7,0.9,8.4,1.2c6.1,0.6,11.7,1.2,16.6,0.4c0.1,0.1,0.3,0.3,0.5,0.4
			c0.2,0.1,5.1,1.8,11,1.8c5.4,0,9.8-1.4,13.2-4.3c2.7-2.2,3.7-6.1,4.6-9.4c0.8-2.9,1.5-5.7,3.1-6.5c1.3-0.7,2.7,0,4,0.8
			c1.6,0.9,3.5,1.6,4.8,0.4C192.3,92.5,191.1,85.5,186.1,79.5z M104.2,74.6c-0.1,0-0.1,0.1-0.1,0.1c-0.5-0.6-0.9-1.3-1.3-2.1
			c-0.1-0.2-0.1-0.5-0.3-0.8l10,1c0.4,0.5,0.9,1.1,1.3,1.5L104.2,74.6z M122.5,58l-8.9,10.9c-0.4-0.7-0.9-1.5-1.3-2.3l7.6-10.2
			C120.9,56.9,121.7,57.5,122.5,58z M101.1,64.5l8.1,2.8c0.3,0.7,0.7,1.4,1.1,2.1l-8.8-0.9C101.3,67.2,101.1,65.9,101.1,64.5z
			 M101.1,61.2c0.1-0.9,0.2-1.9,0.3-2.8l5.6,3.3c0.2,0.6,0.4,1.2,0.6,1.8L101.1,61.2z M104.2,50l-0.8-0.8c0.1-0.5,0.3-1,0.4-1.5
			C104,48.4,104.1,49.2,104.2,50z M105.2,55.1C105.2,55.2,105.3,55.1,105.2,55.1c0.2,0.7,0.4,1.5,0.6,2.2l-3.8-2.3
			c0.1-0.8,0.3-1.7,0.5-2.5L105.2,55.1z M127.8,68.1c-0.9,4-3.2,6-6.7,6c-0.1,0-0.1,0-0.2,0l7.1-8.6C128.1,66.3,128,67.2,127.8,68.1
			z M126.8,62l-9.2,11.1c-0.7-0.4-1.4-0.9-2.1-1.6l9.5-11.6C125.8,60.6,126.4,61.3,126.8,62z M117.1,54.9l-6.2,8.3
			c-0.3-0.8-0.6-1.7-0.9-2.5l4.9-7c0.3,0.2,0.7,0.4,1,0.6C116.4,54.5,116.7,54.7,117.1,54.9z M112.3,52l-3.4,4.9
			c-0.2-1-0.5-1.9-0.7-2.9l2.4-3.3C111.2,51.2,111.8,51.6,112.3,52z M108.4,48.5l-1,1.4c-0.2-1.1-0.4-2.2-0.5-3.2
			C107.4,47.3,107.9,47.9,108.4,48.5z M111.4,79c-0.4,0-0.6-0.1-0.6-0.1c-1.2-0.3-2.3-0.8-3.3-1.4l7.6-0.2c-0.1,0.1-0.1,0.2-0.2,0.3
			C114.1,78.6,112.5,79,111.4,79z M136.4,59.7c0.4-0.5,0.4-1.1,0.2-1.7c-0.3-0.6-0.9-0.9-1.4-0.9c-1.1,0-2-0.6-2.6-1.5
			c-0.3-0.4-0.4-0.9-0.4-1.4c0-0.9,0.3-1.8,1-2.4c0.3-0.3,0.5-0.8,0.5-1.2c0-0.4-0.3-0.9-0.6-1.2c-0.7-0.5-1.2-1.4-1.2-2.3
			c0-0.5,0.1-1,0.3-1.5c0.5-0.9,1.4-1.6,2.5-1.7c0.6,0,1.1-0.4,1.3-1c0.2-0.6,0.1-1.2-0.4-1.7c-0.8-0.8-1.1-1.8-0.8-2.9
			c0.1-0.5,0.4-1,0.7-1.4c0.6-0.6,1.4-1,2.4-1c0,0,0,0,0,0c0.5,0,0.9-0.2,1.2-0.5c0.3-0.3,0.4-0.8,0.4-1.3c-0.1-0.9,0.1-1.8,0.8-2.5
			c0.4-0.4,0.8-0.6,1.3-0.8c1-0.3,2.2-0.1,3,0.6c0.5,0.4,1.1,0.5,1.7,0.2c0.5-0.3,0.9-0.8,0.9-1.4c0-1.1,0.5-2.1,1.5-2.7
			c0.4-0.3,0.9-0.4,1.6-0.5c0.9,0,1.7,0.4,2.3,1c0.3,0.4,0.7,0.5,1.2,0.5c0.5,0,0.9-0.3,1.2-0.6c0.6-0.7,1.4-1.2,2.5-1.2
			c0.5,0,0.9,0.1,1.3,0.3c1,0.4,1.6,1.4,1.7,2.5c0.1,0.6,0.4,1.1,1,1.4c0.6,0.2,1.2,0.1,1.7-0.4c0.8-0.8,1.9-1.1,3-0.9
			c0.5,0.1,0.9,0.4,1.3,0.7c0.7,0.6,1,1.5,1,2.4c0,0.5,0.2,0.9,0.5,1.2c0.3,0.3,0.8,0.4,1.3,0.4c0.9-0.1,1.8,0.2,2.5,0.8
			c0.4,0.4,0.7,0.8,0.8,1.3c0.4,1,0.1,2.2-0.6,3c-0.4,0.5-0.4,1.1-0.2,1.7c0.2,0.6,0.8,0.9,1.4,0.9c1.1,0,2,0.5,2.6,1.5
			c0.3,0.4,0.4,0.9,0.4,1.4c0,0.9-0.3,1.8-1,2.4c-0.3,0.3-0.5,0.8-0.5,1.2c0,0.5,0.2,0.9,0.6,1.2c0.7,0.5,1.2,1.4,1.2,2.3
			c0,0.5-0.1,1-0.3,1.5c-0.5,1-1.4,1.6-2.5,1.7c-0.6,0-1.1,0.4-1.4,1c-0.2,0.6-0.1,1.2,0.4,1.7c0.8,0.7,1.1,1.9,0.9,2.9
			c-0.1,0.5-0.4,1-0.7,1.4c-0.6,0.6-1.4,1-2.4,1c0,0,0,0,0,0c-0.5,0-0.9,0.2-1.2,0.5c-0.3,0.3-0.4,0.8-0.4,1.3
			c0.1,0.9-0.2,1.8-0.8,2.5c-0.3,0.4-0.8,0.7-1.3,0.8c-1,0.3-2.2,0.1-3-0.6c-0.5-0.4-1.1-0.5-1.7-0.2c-0.6,0.3-0.9,0.8-0.9,1.4
			c0,1.1-0.5,2.1-1.4,2.7c-0.5,0.3-0.9,0.4-1.6,0.5c-0.9,0-1.7-0.4-2.3-1c-0.3-0.3-0.6-0.5-1.2-0.5c-0.4,0-0.9,0.3-1.2,0.6
			c-0.5,0.7-1.4,1.2-2.3,1.2l-0.1,1.6v-1.6c-0.5,0-1-0.1-1.4-0.3c-0.9-0.5-1.6-1.4-1.7-2.5c0-0.6-0.4-1.2-1-1.4
			c-0.2-0.1-0.3-0.1-0.5-0.1c-0.4,0-0.8,0.2-1.1,0.5c-0.7,0.8-1.9,1.1-2.9,0.8c-0.5-0.1-1-0.4-1.3-0.7c-0.7-0.6-1-1.5-1-2.4
			c0-0.4-0.2-0.9-0.5-1.2c-0.3-0.3-0.8-0.4-1.3-0.4c-0.9,0.1-1.8-0.1-2.5-0.8c-0.4-0.4-0.7-0.8-0.8-1.3
			C135.5,61.7,135.7,60.5,136.4,59.7z M70.9,56.4l7.6,10.2c-0.4,0.8-0.8,1.6-1.3,2.3L68.3,58C69,57.5,69.9,56.9,70.9,56.4z
			 M81.6,67.3l8.1-2.8c0,1.4-0.2,2.8-0.4,4.1l-8.8,0.9C80.9,68.7,81.2,68,81.6,67.3z M88.8,55.1l-3.9,2.3c0.2-0.7,0.4-1.5,0.5-2.2
			c0,0,0,0,0,0l2.7-2.5C88.5,53.4,88.6,54.2,88.8,55.1z M86.5,50c0.1-0.8,0.3-1.6,0.4-2.3c0.1,0.5,0.3,1,0.4,1.5L86.5,50z
			 M83.7,61.7l5.6-3.3c0.1,0.9,0.2,1.9,0.3,2.8l-6.6,2.3C83.3,62.9,83.5,62.3,83.7,61.7z M78.3,72.8l10-1c-0.1,0.2-0.1,0.5-0.3,0.8
			c-0.4,0.8-0.8,1.4-1.3,2.1c-0.1,0-0.1-0.1-0.1-0.1L77,74.3C77.4,73.8,77.8,73.3,78.3,72.8z M80,78.9c-0.1,0-0.3,0.1-0.6,0.1
			c-1.1,0-2.6-0.4-3.6-1.4c-0.1-0.1-0.1-0.2-0.2-0.3l7.6,0.2C82.2,78.1,81.2,78.6,80,78.9z M83.9,46.7c-0.2,1-0.4,2.1-0.6,3.2
			l-1-1.4C82.9,47.9,83.4,47.3,83.9,46.7z M80.1,50.7l2.4,3.3c-0.2,0.9-0.4,1.9-0.7,2.9L78.4,52C79,51.6,79.5,51.2,80.1,50.7z
			 M75.8,53.7l4.9,7c-0.3,0.9-0.6,1.7-0.9,2.5l-6.2-8.3c0.4-0.2,0.8-0.4,1.2-0.7C75.2,54.1,75.5,53.8,75.8,53.7z M65.8,59.9
			l9.5,11.6c-0.6,0.7-1.4,1.3-2.1,1.6L64,62C64.4,61.3,65,60.6,65.8,59.9z M63,68.1c-0.2-0.9-0.3-1.8-0.2-2.6l7.1,8.6
			c-0.1,0-0.1,0-0.2,0C66.2,74.1,63.9,72.1,63,68.1z M50.4,65.1c-0.4,0.3-0.5,0.8-0.5,1.2c0,0.9-0.3,1.8-1,2.5
			c-0.4,0.4-0.8,0.6-1.4,0.7c-1,0.3-2.2-0.1-2.9-0.8c-0.4-0.4-1.1-0.6-1.6-0.4c-0.6,0.2-1,0.7-1,1.4c-0.1,1.1-0.7,2-1.7,2.5
			c-0.4,0.2-0.9,0.3-1.4,0.3V74l-0.1-1.6c-0.9,0-1.7-0.5-2.3-1.2c-0.3-0.4-0.7-0.6-1.2-0.6c0,0-0.1,0-0.1,0c-0.4,0-0.9,0.2-1.2,0.5
			c-0.6,0.6-1.4,1-2.4,1h0c-0.5,0-1-0.1-1.4-0.4c-0.9-0.6-1.5-1.6-1.5-2.7c0-0.6-0.4-1.2-0.9-1.4c-0.6-0.3-1.2-0.2-1.7,0.2
			c-0.8,0.7-2,0.9-2.9,0.6c-0.5-0.2-1-0.5-1.3-0.9c-0.6-0.7-0.9-1.6-0.8-2.5c0.1-0.4-0.2-0.9-0.5-1.2c-0.3-0.3-0.8-0.5-1.3-0.5
			c-0.9,0-1.7-0.4-2.3-1c-0.4-0.4-0.6-0.9-0.7-1.4c-0.2-1.1,0.1-2.2,0.8-2.9c0.4-0.4,0.6-1.1,0.4-1.6c-0.2-0.6-0.7-1-1.4-1
			c-1.1-0.1-2-0.7-2.5-1.7c-0.2-0.4-0.3-0.9-0.3-1.5c0-0.9,0.5-1.7,1.2-2.3c0.4-0.3,0.6-0.7,0.6-1.2c0-0.5-0.2-0.9-0.5-1.2
			c-0.7-0.6-1.1-1.5-1-2.4c0-0.5,0.2-1,0.4-1.5c0.6-0.9,1.5-1.4,2.6-1.4c0.6,0,1.2-0.3,1.4-0.9c0.3-0.6,0.2-1.2-0.2-1.7
			c-0.7-0.8-0.9-1.9-0.6-3c0.2-0.5,0.4-0.9,0.9-1.3c0.6-0.6,1.5-0.9,2.5-0.8c0.4,0.1,0.9-0.1,1.3-0.4c0.3-0.3,0.5-0.8,0.5-1.2
			c0-0.9,0.3-1.8,1-2.4c0.4-0.4,0.8-0.6,1.3-0.7c1-0.2,2.2,0.1,3,0.9c0.4,0.4,1.1,0.6,1.7,0.4c0.6-0.2,1-0.7,1-1.4
			c0.1-1.1,0.7-2,1.7-2.5c0.4-0.2,1-0.4,1.5-0.3c0.9,0,1.7,0.5,2.3,1.2c0.3,0.4,0.7,0.6,1.2,0.6c0.5,0,0.9-0.2,1.2-0.5
			c0.6-0.6,1.4-1,2.4-1c0,0,0,0,0,0c0.5,0,1,0.2,1.5,0.5c0.9,0.6,1.5,1.6,1.5,2.7c0,0.6,0.3,1.2,0.9,1.4c0.6,0.2,1.2,0.2,1.7-0.2
			c0.8-0.7,1.9-0.9,3-0.6c0.5,0.2,0.9,0.5,1.3,0.8c0.6,0.7,0.9,1.6,0.8,2.5c-0.1,0.4,0.2,0.9,0.5,1.2c0.3,0.3,0.8,0.5,1.3,0.5
			c0.9,0,1.7,0.4,2.3,1c0.3,0.4,0.6,0.8,0.7,1.3c0.3,1-0.1,2.1-0.8,2.9c-0.4,0.4-0.6,1.1-0.4,1.7c0.2,0.6,0.7,1,1.4,1
			c1.1,0.1,2,0.7,2.5,1.7c0.2,0.5,0.3,1,0.3,1.5c-0.1,0.9-0.5,1.8-1.2,2.3c-0.4,0.3-0.6,0.7-0.6,1.2c0,0.5,0.2,0.9,0.5,1.2
			c0.7,0.6,1.1,1.5,1,2.4c0,0.6-0.2,1.1-0.4,1.5c-0.6,0.9-1.5,1.4-2.7,1.4c-0.7,0-1.2,0.3-1.4,0.9c-0.3,0.6-0.2,1.2,0.2,1.7
			c0.7,0.8,0.9,1.9,0.6,3c-0.1,0.5-0.4,0.9-0.8,1.3c-0.7,0.6-1.6,0.9-2.5,0.8C51.2,64.7,50.7,64.8,50.4,65.1z M31.6,111.2
			c-4.6,0-8.4-1.2-11.2-3.5c-1.9-1.6-2.8-4.8-3.6-7.8c-1-3.6-1.9-6.9-4.6-8.4c-0.9-0.5-1.8-0.7-2.7-0.7c-1.8,0-3.2,0.8-4.3,1.5
			C4.7,92.5,4,92.9,3.9,93C2.2,91.5,3,86.4,7.1,81.6c3.2-3.9,6.9-5.6,9-5.6c0.7,0,1.3,0.2,1.6,0.4c0,0.2-0.3,1-0.4,1.5
			c-0.7,1.8-1.7,4.5,0.4,7.1c1.9,2.4,5.4,2.7,9.1,3c3.1,0.3,6.4,0.6,8.3,2.2c5.9,5,6,14,5.7,18.2c-2.9-0.9-5.3-2.4-7.4-5.1
			c1.9-2.6,1.6-6.2-0.8-8.4c-2.5-2.3-6.8-2.1-9.1,0.4c-1.2,1.3-1.7,2.9-1.7,4.6c0.1,1.7,0.8,3.3,2.1,4.4c1.2,1.1,2.7,1.7,4.3,1.7
			c1,0,1.9-0.3,2.8-0.7c1.9,2.4,4.1,4,6.6,5.1C36,110.9,33.9,111.2,31.6,111.2z M26.1,102.2c-0.6-0.6-1-1.4-1.1-2.3
			c0-0.9,0.3-1.7,0.9-2.4c0.6-0.7,1.5-1.1,2.5-1.1c0.8,0,1.6,0.3,2.2,0.9c1.4,1.2,1.4,3.3,0.2,4.7C29.6,103.3,27.4,103.4,26.1,102.2
			z M70.7,146.8l-6.4-12.2c0.4-1.3,0.7-2.5,0.8-3.7l7.8,11.1c0.1,0.1,0.2,0.1,0.4,0.2c-0.4,1.1-0.9,2.2-1.5,3.2
			C71.5,145.9,71,146.3,70.7,146.8z M42.9,126.4l19.1,2.2c0.2,1.3,0.1,2.7-0.4,4.3l-19.9-2.1C42,129,42.4,127.6,42.9,126.4z
			 M60.6,135.8c-0.6,1.2-1.2,2.5-2.1,3.8l-16.9-1c-0.1-1.8-0.1-3.3-0.1-4.8L60.6,135.8z M53.7,146.2l-11.6-0.4c0-0.6,0-1.3-0.1-1.8
			c-0.1-0.8-0.1-1.5-0.2-2.2l14.6,0.9C55.6,143.8,54.7,145,53.7,146.2z M47.8,152.9l-5.9-0.3c0.2-1.3,0.3-2.5,0.3-3.6l9,0.3
			C50,150.5,48.9,151.7,47.8,152.9z M41.3,155.7l3.5,0.2c-1.7,1.7-3.4,3.2-4.9,4.6C40.4,158.7,40.9,157.1,41.3,155.7z M46.8,158.2
			l-0.5,3.1c-1.5,0.5-2.8,0.9-4.1,1.2C43.6,161.2,45.2,159.8,46.8,158.2z M50.5,154.5c1-1,1.9-2,2.8-3.1l0.3,7.1
			c-1.4,0.6-2.7,1.1-4,1.5l0.9-5.4C50.6,154.7,50.5,154.6,50.5,154.5z M56.3,147.9c0.7-0.9,1.4-1.8,2.1-2.7l2.4,9.7
			c0,0,0.1,0.1,0.1,0.1c-1.4,0.8-2.7,1.5-4.2,2.1L56.3,147.9z M60.8,141.9c0.7-1.2,1.4-2.3,2-3.5l5.8,11.1c-1.4,1.4-3.1,2.7-4.9,3.9
			L60.8,141.9z M48.9,121.1c1.6-0.6,3.1-0.9,4.5-0.9c4.3,0,6.6,2.8,7.7,5.1l-16.2-1.9C46,122.4,47.3,121.7,48.9,121.1z M73,132
			c0.7,2.1,0.9,4,0.9,6l-6.9-9.9c0.1,0,0.3-0.1,0.4-0.1C70.2,128,72.6,130.7,73,132z M147.8,126.4c0.5,1.2,1,2.6,1.2,4.3l-19.9,2.1
			c-0.4-1.5-0.5-3-0.4-4.3L147.8,126.4z M119,145.4c-0.7-1.1-1.1-2.1-1.5-3.2c0.1-0.1,0.3-0.1,0.3-0.2l7.8-11.1
			c0.1,1.2,0.4,2.5,0.8,3.7l-6.4,12.2C119.7,146.3,119.3,145.9,119,145.4z M128,138.4c0.6,1.2,1.2,2.3,2,3.5l-2.9,11.5
			c-1.8-1.2-3.5-2.5-4.9-3.9L128,138.4z M129.9,155l2.4-9.7c0.7,0.9,1.4,1.8,2.1,2.7l-0.4,9.3c-1.4-0.7-2.8-1.4-4.2-2.1
			C129.9,155,129.9,155,129.9,155z M143,152.9c-1.1-1.2-2.3-2.4-3.4-3.6l9-0.3c0,1.1,0.1,2.3,0.3,3.6L143,152.9z M148.7,144
			c-0.1,0.6-0.1,1.2-0.1,1.8l-11.6,0.4c-1-1.2-1.9-2.4-2.8-3.5l14.6-0.9C148.8,142.5,148.8,143.2,148.7,144z M137.4,151.4
			c0.9,1.1,1.9,2.1,2.9,3.1c0,0.1-0.1,0.1-0.1,0.2l0.9,5.4c-1.3-0.5-2.7-1-4-1.6L137.4,151.4z M143.9,158.2c1.7,1.6,3.2,3.1,4.6,4.3
			c-1.2-0.3-2.6-0.7-4.1-1.2L143.9,158.2z M146,155.8l3.6-0.2c0.3,1.4,0.8,3.1,1.4,4.8C149.3,159,147.7,157.5,146,155.8z
			 M149.1,138.6l-16.9,1c-0.8-1.3-1.5-2.6-2.1-3.8l19-2C149.3,135.3,149.2,136.8,149.1,138.6z M123.3,128c0.1,0,0.3,0.1,0.4,0.1
			l-6.9,9.9c0-1.9,0.2-3.9,0.9-6C118.2,130.7,120.6,128,123.3,128z M137.3,120.2c1.4,0,2.9,0.3,4.5,0.9c1.6,0.6,3,1.3,4,2.3
			l-16.2,1.9C130.8,123,133.1,120.2,137.3,120.2z M91.4,107c1.4-0.5,2.8-1.2,4-2c1.3,0.8,2.6,1.6,4,2c-1.4,0.3-2.7,0.8-4,1.4
			C94.1,107.8,92.7,107.3,91.4,107z M187,92.9c-0.3,0-0.9-0.4-1.4-0.7c-1.2-0.7-2.6-1.5-4.3-1.5c-0.9,0-1.9,0.2-2.7,0.7
			c-2.7,1.5-3.6,4.9-4.6,8.4c-0.8,3-1.7,6.2-3.6,7.9c-2.8,2.3-6.5,3.5-11.2,3.5c-2.3,0-4.4-0.3-6.1-0.7c2.5-1.1,4.7-2.7,6.6-5.1
			c0.9,0.4,1.8,0.7,2.8,0.7c1.6,0,3.1-0.6,4.3-1.7c2.6-2.4,2.8-6.5,0.4-9.1c-2.3-2.5-6.6-2.7-9.1-0.4c-2.4,2.2-2.7,5.8-0.8,8.4
			c-2,2.6-4.5,4.2-7.4,5.1c-0.3-4.2-0.2-13.2,5.7-18.2c1.9-1.7,5.2-1.9,8.3-2.2c3.7-0.4,7.1-0.7,9.1-3.1c2.1-2.6,1.1-5.3,0.4-7.1
			c-0.2-0.5-0.5-1.3-0.5-1.4c1.7-1.4,6.4-0.1,10.7,5.1C187.8,86.4,188.6,91.5,187,92.9z M160,102c-1.2-1.3-1.1-3.4,0.2-4.7
			c0.6-0.6,1.4-0.9,2.2-0.9c0.9,0,1.8,0.4,2.4,1.1c1.2,1.3,1.1,3.4-0.2,4.7c-0.6,0.6-1.4,0.9-2.2,0.9
			C161.5,103.1,160.6,102.7,160,102z"/>
		<path class="st0" d="M140.7,53.4c0,0,0,0.1,0,0.1c0.6,2.1,1.6,4.1,3.1,5.8c2.7,3.1,6.7,4.8,10.8,4.8c3.6,0,7-1.3,9.7-3.7
			c2.9-2.6,4.6-6.1,4.8-10c0.2-3.9-1.1-7.6-3.7-10.4c-1.5-1.7-3.3-2.9-5.3-3.7c-0.1,0-0.1-0.1-0.2-0.1c0,0-0.1,0-0.1,0c0,0,0,0,0,0
			c-1.7-0.6-3.4-1-5.2-1c-1.3,0-2.6,0.2-3.8,0.6c0,0,0,0-0.1,0c-0.2,0-0.4,0.1-0.5,0.2c-1.9,0.6-3.7,1.6-5.3,3
			c-1.5,1.4-2.7,3.1-3.5,4.9c-0.1,0.1-0.2,0.3-0.2,0.5c0,0,0,0.1,0,0.1c-0.6,1.4-1,3-1.1,4.5C140.1,50.4,140.3,52,140.7,53.4
			C140.7,53.4,140.7,53.4,140.7,53.4z M166,50.3c-0.1,1-0.3,2-0.6,3l-4.8-0.3l0.3-6.1l4.8,0.3C165.9,48.2,166,49.2,166,50.3z
			 M157.4,52.8l-6.1-0.3l0.3-6.1l6.1,0.3L157.4,52.8z M148.3,52.3l-4.7-0.3c-0.2-1-0.3-2-0.3-3c0.1-1.1,0.3-2.1,0.6-3.1l4.7,0.3
			L148.3,52.3z M144.7,55.2l3.4,0.2l-0.2,3.4c-0.6-0.4-1.2-1-1.8-1.5C145.6,56.6,145.1,55.9,144.7,55.2z M151,60.3l0.3-4.7l6,0.3
			l-0.3,4.7C155,61,152.9,60.9,151,60.3z M160.2,59.5l0.2-3.5l3.5,0.2c-0.5,0.7-1,1.3-1.7,1.9C161.6,58.7,160.9,59.2,160.2,59.5z
			 M164.5,44l-3.4-0.2l0.2-3.4c0.7,0.5,1.3,1,1.9,1.7C163.6,42.7,164.1,43.3,164.5,44z M158.2,38.9l-0.3,4.7l-6.1-0.3l0.3-4.7
			c0.8-0.2,1.6-0.3,2.5-0.3C155.8,38.3,157,38.6,158.2,38.9z M148.9,39.8l-0.2,3.3l-3.3-0.2c0.4-0.6,1-1.2,1.6-1.7
			C147.6,40.7,148.3,40.2,148.9,39.8z"/>
		<path class="st0" d="M49.6,44.3c0-0.1-0.1-0.2-0.2-0.4c-0.8-1.9-2-3.6-3.6-5c-1.5-1.3-3.2-2.3-5.1-2.9c-0.2-0.1-0.4-0.3-0.6-0.3
			c0,0-0.1,0-0.1,0c0,0,0,0-0.1,0c-1.2-0.4-2.5-0.6-3.8-0.6c-1.8,0-3.5,0.4-5.2,1c0,0,0,0,0,0c0,0-0.1,0-0.1,0
			c-0.1,0-0.1,0.1-0.2,0.1c-2,0.8-3.8,2-5.3,3.7c-2.6,2.9-3.9,6.6-3.7,10.4c0.2,3.9,1.9,7.4,4.8,10c2.7,2.4,6.1,3.7,9.7,3.7
			c4.1,0,8-1.8,10.8-4.8c1.5-1.7,2.5-3.7,3.1-5.8c0,0,0-0.1,0-0.1c0,0,0,0,0,0c0.4-1.5,0.6-3,0.5-4.5C50.5,47.3,50.1,45.8,49.6,44.3
			C49.6,44.3,49.6,44.3,49.6,44.3z M24.8,50.3c-0.1-1.1,0.1-2.1,0.3-3.1l4.8-0.3l0.3,6.1l-4.8,0.3C25.1,52.3,24.8,51.3,24.8,50.3z
			 M33,46.7l6.1-0.3l0.3,6.1l-6.1,0.3L33,46.7z M42.2,46.2l4.7-0.3c0.3,1,0.6,2,0.6,3.1c0.1,1-0.1,2-0.3,3l-4.7,0.3L42.2,46.2z
			 M45.3,42.9L42,43.1l-0.2-3.3c0.7,0.4,1.3,0.8,1.9,1.4C44.3,41.7,44.9,42.3,45.3,42.9z M38.6,38.6l0.3,4.7l-6.1,0.3l-0.3-4.7
			c1.2-0.4,2.3-0.6,3.6-0.6C37,38.3,37.8,38.4,38.6,38.6z M29.5,40.4l0.2,3.4L26.3,44c0.4-0.7,0.8-1.3,1.4-1.9
			C28.2,41.5,28.9,40.9,29.5,40.4z M26.9,56.3l3.5-0.2l0.2,3.5c-0.7-0.4-1.4-0.9-2-1.4C27.9,57.6,27.4,56.9,26.9,56.3z M33.8,60.8
			l-0.3-4.9l6-0.3l0.3,4.8c-1.2,0.4-2.4,0.7-3.7,0.7C35.3,61,34.6,60.9,33.8,60.8z M42.9,58.9l-0.2-3.5l3.4-0.2
			c-0.4,0.7-0.9,1.4-1.4,2C44.1,57.9,43.5,58.4,42.9,58.9z"/>
	</g>
</g>
</svg>
