<?xml version="1.0" encoding="utf-8"?>
<!-- Generator: Adobe Illustrator 19.2.0, SVG Export Plug-In . SVG Version: 6.00 Build 0)  -->
<svg version="1.1" id="Capa_1" xmlns="http://www.w3.org/2000/svg" xmlns:xlink="http://www.w3.org/1999/xlink" x="0px" y="0px"
	 viewBox="0 0 218.4 218.4" style="enable-background:new 0 0 218.4 218.4;" xml:space="preserve">
<style type="text/css">
	.st0{fill:#020202;}
</style>
<g>
	<g>
		<path class="st0" d="M218.2,101.5c-0.4-1.6-1.3-2.9-2.5-3.9c1-1.2,1.6-2.7,1.6-4.4c0-1.1-0.3-2.2-0.8-3.2
			c-0.7-1.3-1.9-2.4-3.2-2.9c0.2-1.5,0-3-0.8-4.3c-0.5-1-1.3-1.8-2.3-2.4c-1.3-0.8-3-1.2-4.5-0.9c-0.1-1.6-0.8-3.1-1.9-4.2
			c-0.8-0.8-1.8-1.4-2.9-1.7c-1.4-0.4-3-0.3-4.4,0.2c-0.9-1.2-2.1-2.1-3.6-2.5c-1.1-0.3-2.3-0.3-3.3-0.1c-1.6,0.4-2.9,1.3-3.9,2.6
			c-2-1.7-5.1-2.1-7.6-0.8c-1.3,0.8-2.3,1.9-2.9,3.2c-1.5-0.2-3,0.1-4.3,0.8c-1,0.6-1.8,1.3-2.4,2.3c-0.9,1.4-1.2,3-1,4.5
			c-1.6,0.1-3.1,0.8-4.2,1.9c-0.8,0.8-1.4,1.8-1.7,2.9c-0.4,1.5-0.3,3,0.2,4.4c-1.2,0.9-2.1,2.1-2.5,3.6c-0.3,1.1-0.3,2.3-0.1,3.3
			c0.4,1.6,1.3,2.9,2.5,3.9c-1,1.2-1.6,2.7-1.6,4.3c0,1.1,0.3,2.3,0.8,3.3c0.5,0.9,1.3,1.7,2.2,2.2c-3.4,2.3-9.2,7.2-12.7,10.5
			c-1.8,1.7-3.6,3.6-5.3,5.5c-0.3,0.3-0.6,0.6-0.9,1c1.2-4.3,0.7-8.5-1.6-12.3c0.9,0.3,2,0.5,3,0.5c2.6,0,6.4-1,9.6-6
			c4.8-7.7,1-14-8.4-23.5c-3.4-3.5-6.2-7.7-8.7-16.8c0-0.1-0.1-0.1-0.1-0.2s-0.1-0.1-0.1-0.2c-0.2-0.2-0.4-0.5-0.7-0.5l0,0l0,0l0,0
			c-0.3-0.1-0.6,0-0.9,0.1c-0.1,0-0.1,0.1-0.2,0.1c-0.1,0.1-0.1,0.1-0.2,0.1c-0.7,0.8-17.6,19.9-15.6,35.3c0.7,5.1,3.3,9.2,7.8,12.2
			c1.1,0.7,2.8,1.1,4.5,1.1c2.7,0,4.8-1.1,6.2-2.9c4.9,5.7,4.5,12.6-1,19.4c-5.5,4.9-11.8,8.4-20.3,7.3c-2.1-0.3-4-1-5.7-1.9
			c1.4-1.2,2.8-2.5,3.8-4.1c3.6-5.2,4.7-12.1,3-18.8c-0.2-0.7-0.9-1.2-1.6-1s-1.2,0.9-1,1.6c1.5,6,0.5,12-2.7,16.6
			c-1.1,1.6-2.5,3-4.1,4.1c-1.5-1.1-3-2.5-4.1-4.1c-3.1-4.6-4.1-10.7-2.7-16.6c0.2-0.7-0.3-1.5-1-1.6c-0.7-0.2-1.4,0.3-1.6,1
			c-1.6,6.7-0.5,13.6,3,18.8c1.1,1.6,2.4,2.9,3.8,4.1c-1.8,0.9-3.7,1.6-5.7,1.9c-8.5,1.1-14.8-2.4-20.3-7.3
			c-5.5-6.9-5.9-13.8-1-19.5c1.4,1.9,3.5,2.9,6.2,2.9c1.7,0,3.4-0.4,4.5-1.2c4.5-3,7.2-7.1,7.8-12.2c2-15.4-14.9-34.5-15.6-35.3
			c-0.1-0.1-0.1-0.1-0.2-0.1c-0.1-0.1-0.1-0.1-0.2-0.1c-0.3-0.1-0.6-0.2-0.9-0.1l0,0l0,0l0,0c-0.3,0.1-0.6,0.3-0.7,0.5
			c0,0.1-0.1,0.1-0.1,0.2s-0.1,0.1-0.1,0.2c-2.5,9.1-5.3,13.3-8.7,16.8c-9.3,9.6-13.2,15.8-8.4,23.5c3.1,5,6.9,6,9.6,6
			c1.1,0,2.1-0.2,3-0.5c-2.3,3.8-2.8,8-1.6,12.3c-0.3-0.3-0.6-0.6-0.9-1c-1.8-1.9-3.5-3.8-5.3-5.5c-3.5-3.4-9.4-8.2-12.7-10.5
			c0.9-0.6,1.6-1.3,2.2-2.2c0.6-1,0.9-2.1,0.8-3.3c0-1.6-0.6-3.1-1.6-4.3c1.3-0.9,2.2-2.3,2.5-3.9c0.3-1.1,0.2-2.3-0.1-3.3
			c-0.4-1.5-1.3-2.7-2.5-3.6c0.6-1.4,0.6-2.9,0.2-4.4c-0.3-1.1-0.9-2.1-1.7-2.9c-1.1-1.1-2.6-1.8-4.2-1.9c0.2-1.5-0.1-3.1-0.9-4.5
			c-0.6-1-1.4-1.8-2.4-2.3c-1.3-0.7-2.8-1-4.3-0.8c-0.6-1.4-1.6-2.5-2.9-3.3c-2.4-1.3-5.5-1-7.6,0.8c-0.9-1.3-2.3-2.2-3.9-2.6
			c-1.1-0.3-2.3-0.2-3.3,0.1c-1.5,0.4-2.7,1.3-3.6,2.5c-1.4-0.6-2.9-0.6-4.3-0.2c-1.1,0.3-2.1,0.9-2.9,1.7c-1.1,1.1-1.8,2.6-2,4.2
			c-1.6-0.2-3.2,0.1-4.5,0.9c-1,0.6-1.7,1.4-2.3,2.4c-0.7,1.3-1,2.8-0.8,4.3C3.8,87.7,2.7,88.7,2,90c-0.6,1-0.8,2.1-0.8,3.2
			c0,1.6,0.6,3.2,1.6,4.4c-1.3,0.9-2.2,2.3-2.5,3.8c-0.3,1.1-0.2,2.3,0.1,3.3c0.4,1.5,1.3,2.7,2.5,3.6c-0.6,1.4-0.6,2.9-0.2,4.3
			c0.3,1.1,0.9,2.1,1.7,2.9c1.1,1.1,2.6,1.8,4.2,1.9c-0.2,1.6,0.1,3.2,0.9,4.5c0.6,1,1.4,1.7,2.4,2.3c1.3,0.7,2.8,1,4.3,0.8
			c0.6,1.4,1.6,2.5,2.9,3.2c2.4,1.3,5.5,1,7.6-0.7c0.9,1.3,2.3,2.2,3.9,2.5c0.5,0.1,1,0.2,1.5,0.2c0.6,0,1.2-0.1,1.8-0.3
			c1.5-0.4,2.7-1.3,3.6-2.5c1.4,0.6,2.9,0.6,4.3,0.2c1.1-0.3,2.1-0.9,2.9-1.7c1.1-1.1,1.8-2.6,1.9-4.2c1.6,0.2,3.2-0.1,4.5-1
			c1-0.6,1.8-1.5,2.3-2.4c0.4-0.8,0.6-1.6,0.7-2.4c2.4,1.7,6.3,4.8,9.6,7.8c-5.5-1.7-10.9-0.6-15.5,3.5c-0.6,0.5-0.6,1.4-0.1,1.9
			s1.3,0.6,1.9,0.1c5.9-5.2,13.1-4.8,20.3,1.2c0.1,0.1,0.2,0,0.2,0.1c0.3,0.3,0.5,0.5,0.8,0.8c2.3,2.5,4.8,5.1,7.4,7.4
			c0.2,0.2,0.3,0.4,0.4,0.6c0.1,0.1,0.3,0.1,0.4,0.2c5,4.3,10.8,7.6,18.3,7.6c1.1,0,2.3-0.1,3.5-0.2c2.9-0.4,5.5-1.3,7.8-2.7
			c2.3,1.4,5,2.3,7.8,2.7c1.2,0.2,2.4,0.2,3.5,0.2c7.4,0,13.3-3.3,18.3-7.6c0.1-0.1,0.3-0.1,0.4-0.2c0.2-0.2,0.3-0.4,0.4-0.6
			c2.6-2.4,5.1-4.9,7.4-7.4c0.3-0.3,0.5-0.5,0.8-0.8c0.1-0.1,0.2,0,0.2-0.1c7.2-6,14.5-6.4,20.3-1.2c0.6,0.5,1.4,0.4,1.9-0.1
			c0.5-0.6,0.4-1.4-0.1-1.9c-4.6-4.1-10-5.2-15.5-3.5c3.3-3,7.2-6.1,9.6-7.8c0.1,0.8,0.3,1.7,0.7,2.4c0.5,1,1.3,1.8,2.3,2.4
			c1.4,0.8,2.9,1.2,4.5,1c0.1,1.6,0.8,3.1,1.9,4.2c0.8,0.8,1.8,1.4,2.9,1.7c1.4,0.4,3,0.3,4.4-0.2c0.9,1.2,2.1,2.1,3.6,2.5
			c0.6,0.2,1.2,0.3,1.9,0.3c0.5,0,1-0.1,1.5-0.2c1.6-0.4,2.9-1.3,3.9-2.5c2,1.7,5.2,2.1,7.6,0.7c1.3-0.7,2.3-1.9,2.9-3.2
			c1.4,0.2,3,0,4.3-0.8c1-0.6,1.8-1.3,2.4-2.3c0.9-1.4,1.2-3,1-4.5c1.6-0.1,3.1-0.8,4.2-1.9c0.8-0.8,1.4-1.8,1.7-2.9
			c0.4-1.4,0.3-3-0.2-4.3c1.2-0.9,2.1-2.1,2.5-3.6C218.4,103.8,218.5,102.6,218.2,101.5z M52.2,112.1c-0.4,0.1-0.7,0.3-0.9,0.7
			c-0.2,0.3-0.2,0.8-0.1,1.1c0.4,1.1,0.3,2.4-0.2,3.4c-0.3,0.6-0.8,1.1-1.4,1.4c-1.2,0.7-2.7,0.8-4,0.2c-0.5-0.3-1-0.2-1.5,0.1
			c-0.4,0.3-0.6,0.9-0.5,1.4c0.4,1.4-0.1,2.8-1.1,3.8c-0.5,0.5-1,0.8-1.7,1c-1.1,0.3-2.4,0.1-3.4-0.6c-0.3-0.2-0.7-0.3-1.1-0.2
			c-0.4,0.1-0.7,0.4-0.9,0.8c-0.5,1.1-1.4,1.9-2.6,2.2c-0.7,0.2-1.3,0.2-2,0.1c-1.4-0.3-2.5-1.3-2.9-2.7c-0.2-0.5-0.6-0.9-1.1-0.9
			c-0.1,0-0.1,0-0.1,0c-0.5,0-0.9,0.2-1.2,0.7c-1.1,1.8-3.5,2.5-5.4,1.5c-1-0.6-1.8-1.6-2-2.8c-0.1-0.4-0.3-0.7-0.7-0.9
			s-0.8-0.2-1.1-0.1c-1.1,0.4-2.4,0.3-3.4-0.2c-0.6-0.3-1.1-0.8-1.4-1.4c-0.8-1.2-0.8-2.7-0.2-4c0.2-0.5,0.2-1-0.1-1.5
			c-0.3-0.4-0.9-0.6-1.4-0.5c-1.3,0.3-2.8-0.1-3.8-1c-0.5-0.5-0.8-1.1-1-1.7c-0.3-1.1-0.1-2.4,0.6-3.4c0.2-0.3,0.3-0.8,0.2-1.1
			c-0.1-0.4-0.4-0.7-0.7-0.9c-1.1-0.5-1.9-1.4-2.2-2.6c-0.2-0.6-0.2-1.3,0-2c0.3-1.4,1.3-2.5,2.7-2.9c0.5-0.2,0.9-0.6,0.9-1.1
			c0.1-0.5-0.2-1-0.7-1.3c-1.2-0.7-2-2-2-3.5c0-0.7,0.2-1.3,0.5-1.9c0.6-1,1.6-1.8,2.8-2C7.5,89.2,7.8,89,8,88.6s0.2-0.8,0.1-1.1
			c-0.4-1.1-0.3-2.4,0.2-3.4c0.3-0.6,0.8-1.1,1.4-1.4c1.2-0.8,2.7-0.8,4-0.2c0.5,0.3,1,0.2,1.5-0.1c0.4-0.3,0.6-0.9,0.5-1.4
			c-0.3-1.4,0.1-2.8,1.1-3.8c0.5-0.5,1.1-0.8,1.7-1c1.1-0.3,2.4-0.1,3.4,0.6c0.3,0.2,0.7,0.3,1.1,0.2c0.4-0.1,0.7-0.4,0.9-0.8
			c0.5-1.1,1.4-1.9,2.6-2.2c0.6-0.2,1.3-0.2,2,0c1.4,0.3,2.5,1.3,2.9,2.7c0.2,0.5,0.6,0.9,1.1,0.9c0.5,0.1,1-0.2,1.3-0.6
			c1.1-1.8,3.5-2.5,5.4-1.5c1,0.6,1.8,1.6,2,2.8c0.1,0.4,0.3,0.8,0.7,0.9c0.4,0.2,0.8,0.2,1.1,0.1c1.1-0.4,2.3-0.3,3.4,0.2
			c0.6,0.3,1.1,0.8,1.4,1.4c0.8,1.2,0.8,2.7,0.2,3.9c-0.2,0.5-0.2,1,0.1,1.5c0.3,0.4,0.9,0.6,1.4,0.5c1.4-0.3,2.9,0.1,3.8,1
			c0.5,0.5,0.8,1.1,1,1.7c0.3,1.2,0.1,2.4-0.6,3.4c-0.2,0.3-0.3,0.8-0.2,1.1c0.1,0.4,0.4,0.7,0.8,0.9c1.1,0.5,1.9,1.4,2.3,2.6
			c0.2,0.6,0.2,1.3,0,2c-0.3,1.4-1.3,2.5-2.7,2.9c-0.5,0.2-0.9,0.6-0.9,1.1c-0.1,0.5,0.2,1,0.7,1.3c1.2,0.7,2,2,1.9,3.5
			c0,0.7-0.2,1.3-0.5,1.9C54.4,111.2,53.4,111.9,52.2,112.1z M65.8,100.4l15.4,9.8c-0.6,1.4-1.3,2.5-2.2,3.3l-14.8-9.2l0,0
			C64.4,103.1,64.9,101.8,65.8,100.4z M70.1,94.8l12.6,8.8c-0.2,1.4-0.4,2.8-0.7,4l-14.7-9.3C68.1,97.1,69,96,70.1,94.8z M78.1,85
			l4.4,3.2c0.2,1.5,0.3,3.1,0.4,4.6l-6.6-4.9C76.9,87,77.5,86.1,78.1,85z M90,87.4l-4.4,5.1c-0.1-1.3-0.2-2.7-0.3-3.9
			c0-0.1,0.1-0.1,0.2-0.1l2.5-4.4C88.6,85,89.3,86.2,90,87.4z M93.2,94c-0.1,0-0.2,0-0.2,0l-7.3,5.6c0-1,0-2.1,0-3.2l5.6-6.4
			C92,91.3,92.6,92.6,93.2,94z M95.4,102.3L84.9,107c0.2-1.2,0.4-2.4,0.6-3.7l8.6-6.6C94.7,98.5,95.2,100.4,95.4,102.3z M94.6,110.1
			c-0.1,0-0.2-0.1-0.4,0l-11.9,3.6c0.6-1,1.2-2.1,1.6-3.3l11.5-5.1c0,0.6,0.1,1.1,0,1.7C95.3,108,95,109.1,94.6,110.1z M84.8,84.1
			c-0.3-2.3-0.6-4.3-0.9-6.1c0.7,1,1.6,2.1,2.4,3.4L84.8,84.1z M82.1,84.5l-2.8-2c0.6-1.3,1.2-2.7,1.8-4.3
			C81.5,80.2,81.9,82.3,82.1,84.5z M88.8,117.2c-0.5,0.3-1.7,0.7-3,0.7c-1,0-2.5-0.3-3.7-1.4l10.7-3.2
			C91.8,114.7,90.5,116.1,88.8,117.2z M74.6,90l8.5,6.3c0,1.4,0,2.8-0.1,4.2l-11-7.7c0.5-0.5,0.9-1,1.5-1.6
			C73.8,90.8,74.2,90.4,74.6,90z M65.4,111.4c-0.9-1.4-1.4-2.7-1.6-4.1l12.8,7.9c-1.1,0.5-2.4,0.9-3.9,0.9
			C69.9,116.2,67.4,114.6,65.4,111.4z M123.7,110.1c-0.4-1-0.6-2.1-0.8-3.2c-0.1-0.6,0-1.1,0-1.7l11.5,5.1c0.4,1.2,1,2.3,1.6,3.3
			l-11.9-3.6C124,110,123.9,110.1,123.7,110.1z M124.3,96.6l8.6,6.6c0.1,1.3,0.3,2.6,0.6,3.7l-10.5-4.7
			C123.2,100.4,123.7,98.5,124.3,96.6z M127,90l5.6,6.5c0,1.1,0,2.2,0,3.2l-7.3-5.6c-0.1,0-0.1,0-0.2-0.1
			C125.7,92.6,126.4,91.3,127,90z M130.4,83.9l2.5,4.4c0,0.1,0.1,0.1,0.2,0.1c-0.1,1.3-0.2,2.6-0.3,3.9l-4.4-5.1
			C129.1,86.2,129.7,85,130.4,83.9z M142.1,87.9l-6.6,4.9c0.1-1.6,0.2-3.1,0.4-4.6l4.4-3.1C140.8,86.1,141.5,87,142.1,87.9z
			 M151.1,98.2l-14.7,9.3c-0.3-1.2-0.6-2.6-0.7-4l12.6-8.8C149.4,96,150.3,97.1,151.1,98.2z M154.3,104.3L154.3,104.3l-14.9,9.2
			c-0.9-0.8-1.6-2-2.2-3.3l15.4-9.8C153.5,101.8,154,103.1,154.3,104.3z M136.2,84.5c0.3-2.2,0.6-4.4,1-6.3c0.6,1.6,1.2,3,1.8,4.3
			L136.2,84.5z M133.6,84.1l-1.5-2.7c0.8-1.2,1.7-2.4,2.4-3.4C134.2,79.7,133.9,81.8,133.6,84.1z M145.7,116.2
			c-1.5,0-2.8-0.5-3.9-0.9l12.8-7.9c-0.2,1.4-0.7,2.7-1.6,4.1C151,114.6,148.5,116.2,145.7,116.2z M146.4,92.8l-11,7.7
			c-0.1-1.4-0.1-2.8-0.1-4.2l8.4-6.2c0.4,0.4,0.8,0.8,1.2,1.2C145.5,91.8,145.9,92.2,146.4,92.8z M129.6,117.2
			c-1.7-1.1-3-2.5-4.1-3.9l10.7,3.2c-1.1,1.1-2.7,1.4-3.7,1.4C131.3,117.9,130.1,117.5,129.6,117.2z M215.5,104.1
			c-0.3,1.1-1.1,2.1-2.2,2.6c-0.4,0.2-0.6,0.5-0.7,0.9c-0.1,0.4,0,0.8,0.2,1.1c0.7,1,0.9,2.2,0.6,3.4c-0.2,0.7-0.5,1.2-1,1.7
			c-0.7,0.7-1.8,1.2-2.8,1.2c-0.3,0-0.7-0.1-1-0.1c-0.5-0.1-1.1,0.1-1.4,0.5c-0.3,0.4-0.4,1-0.1,1.5c0.6,1.2,0.6,2.8-0.2,4
			c-0.4,0.6-0.8,1-1.4,1.4c-1,0.6-2.3,0.7-3.4,0.2c-0.4-0.1-0.8-0.1-1.1,0.1s-0.6,0.5-0.7,0.9c-0.2,1.2-0.9,2.2-2,2.7
			c-1.9,1-4.3,0.4-5.4-1.5c-0.3-0.5-0.8-0.7-1.3-0.6s-1,0.4-1.1,0.9c-0.4,1.4-1.5,2.4-2.9,2.7c-0.7,0.1-1.3,0.1-2-0.1
			c-1.1-0.3-2.1-1.1-2.6-2.2c-0.2-0.4-0.5-0.6-0.9-0.8c-0.1,0-0.2-0.1-0.4-0.1c-0.3,0-0.5,0.1-0.8,0.2c-1,0.7-2.2,0.9-3.4,0.5
			c-0.7-0.2-1.2-0.5-1.7-1c-1-1-1.4-2.4-1-3.8c0.1-0.5-0.1-1.1-0.5-1.4s-1-0.4-1.5-0.1c-1.2,0.6-2.8,0.6-4-0.2
			c-0.6-0.4-1-0.9-1.4-1.4c-0.6-1-0.7-2.3-0.2-3.4c0.1-0.4,0.1-0.8-0.1-1.1c-0.2-0.3-0.5-0.6-0.9-0.7c-1.2-0.2-2.2-0.9-2.8-2
			c-0.3-0.6-0.5-1.2-0.5-1.9c0-1.4,0.7-2.7,1.9-3.5c0.5-0.3,0.7-0.8,0.7-1.3c-0.1-0.5-0.4-1-0.9-1.1c-1.4-0.4-2.4-1.5-2.7-2.9
			c-0.1-0.7-0.1-1.3,0.1-2c0.3-1.1,1.1-2.1,2.3-2.6c0.4-0.2,0.6-0.5,0.7-0.9c0.1-0.4,0-0.8-0.2-1.1c-0.7-1-0.9-2.2-0.6-3.4
			c0.2-0.6,0.5-1.2,1-1.7c1-1,2.5-1.4,3.8-1c0.5,0.1,1-0.1,1.4-0.5c0.3-0.4,0.4-1,0.1-1.5c-0.7-1.3-0.6-2.8,0.2-3.9
			c0.4-0.6,0.8-1,1.4-1.4c1-0.6,2.3-0.7,3.4-0.2c0.4,0.1,0.8,0.1,1.1-0.1s0.6-0.5,0.7-0.9c0.2-1.2,0.9-2.2,2-2.8
			c1.9-1,4.3-0.4,5.4,1.5c0.3,0.5,0.8,0.7,1.3,0.6s1-0.4,1.1-0.9c0.4-1.3,1.6-2.4,2.9-2.7c0.7-0.1,1.3-0.1,2,0.1
			c1.1,0.3,2.1,1.1,2.6,2.2c0.2,0.4,0.5,0.6,0.9,0.8c0.4,0.1,0.8,0.1,1.1-0.2c1-0.7,2.2-0.9,3.4-0.5c0.7,0.2,1.2,0.5,1.7,1
			c1,1,1.4,2.4,1,3.8c-0.1,0.5,0,1,0.5,1.4c0.4,0.3,1,0.4,1.5,0.1c1.3-0.6,2.8-0.6,4,0.2c0.6,0.3,1,0.8,1.4,1.5
			c0.6,1,0.7,2.3,0.2,3.4c-0.1,0.4-0.1,0.8,0.1,1.1c0.2,0.3,0.5,0.6,0.9,0.7c1.2,0.2,2.2,0.9,2.8,2c0.3,0.6,0.5,1.2,0.5,1.9
			c0,1.4-0.7,2.7-2,3.5c-0.5,0.3-0.7,0.8-0.7,1.3c0.1,0.5,0.4,1,0.9,1.1c1.4,0.4,2.4,1.5,2.7,2.9
			C215.7,102.8,215.7,103.5,215.5,104.1z"/>
		<path class="st0" d="M189.6,84.4C189.5,84.4,189.5,84.4,189.6,84.4c-0.2-0.1-0.3,0-0.5,0c-0.1,0-0.2,0-0.2,0c-0.1,0-0.2,0-0.3,0
			h-0.1c-2.1,0-4.2,0.5-6.1,1.3c-2.1,0.9-4,2.3-5.5,3.9c-0.1,0.1-0.3,0.2-0.4,0.4v0.1c-2.3,2.7-3.7,6.2-3.9,9.8l0,0
			c0,0.1,0,0.2,0,0.3c-0.1,2.3,0.3,4.7,1.3,7c2.6,6,8.5,9.9,15,9.9c2.2,0,4.4-0.5,6.5-1.4c8.3-3.6,12.1-13.2,8.5-21.5
			C201.4,88.5,195.8,84.7,189.6,84.4z M199.5,109.2l-6-2.4l2.9-7.4l5.9,2.4C202.2,104.5,201.2,107,199.5,109.2z M187.7,114.3
			c-2.8-0.2-5.3-1.3-7.4-3l2.3-5.9l7.4,2.9L187.7,114.3z M183.6,102.9l2.9-7.4l7.4,2.9l-2.9,7.4L183.6,102.9z M178.3,92.2l5.8,2.3
			l-2.9,7.4l-5.8-2.3C175.5,96.9,176.6,94.3,178.3,92.2z M189.8,87.2c2.8,0.2,5.3,1.2,7.4,2.9l-2.3,5.8l-7.4-2.9L189.8,87.2z
			 M202.3,98.8l-4.8-1.9l1.9-4.8c0.8,1,1.5,2,2,3.2C201.9,96.5,202.1,97.6,202.3,98.8z M183.4,88.2c1.1-0.5,2.3-0.8,3.5-0.9L185,92
			l-4.7-1.9C181.3,89.4,182.3,88.7,183.4,88.2z M175.4,102.5l4.8,1.9l-1.9,4.8c-0.8-0.9-1.4-1.9-1.9-3.1
			C175.8,105,175.5,103.7,175.4,102.5z M194.3,113.3c-1.2,0.5-2.4,0.8-3.6,1l1.9-4.9l4.9,1.9C196.5,112,195.5,112.8,194.3,113.3z"/>
		<path class="st0" d="M45.8,99.9L45.8,99.9c-0.2-3.6-1.6-7.1-3.9-9.8V90c-0.1-0.2-0.3-0.3-0.4-0.4c-1.5-1.6-3.3-3-5.5-3.9
			c-2-0.8-4-1.3-6.1-1.3h-0.1c-0.1,0-0.2,0-0.3,0c-0.1,0-0.2,0-0.2,0c-0.2,0-0.3-0.1-0.4,0c0,0,0,0,0,0.1
			c-6.2,0.3-11.8,4.1-14.3,9.8c-3.6,8.3,0.2,17.9,8.5,21.5c2.1,0.9,4.2,1.4,6.5,1.4c6.5,0,12.4-3.9,15-9.9c1-2.3,1.4-4.7,1.3-7
			C45.8,100.1,45.9,100,45.8,99.9z M28.3,108.3l7.4-2.9l2.3,5.9c-2.1,1.7-4.6,2.7-7.4,3L28.3,108.3z M27.3,105.8l-2.9-7.4l7.4-2.9
			l2.9,7.4L27.3,105.8z M18.9,109.2c-1.7-2.1-2.7-4.7-2.9-7.4l5.9-2.4l2.9,7.4L18.9,109.2z M30.8,93l-7.4,2.9l-2.3-5.8
			c2.1-1.7,4.6-2.7,7.4-2.9L30.8,93z M34.3,94.5l5.8-2.3c1.7,2.1,2.7,4.7,3,7.4l-5.8,2.3L34.3,94.5z M38,90.1L33.3,92l-1.9-4.7
			c1.2,0.2,2.4,0.4,3.5,0.9C36.1,88.7,37.1,89.4,38,90.1z M19,92.1l1.9,4.8l-4.8,1.9c0.2-1.2,0.4-2.4,0.9-3.5
			C17.5,94.1,18.2,93.1,19,92.1z M20.9,111.3l4.9-1.9l1.9,4.9c-1.2-0.2-2.5-0.4-3.7-1C22.9,112.8,21.9,112,20.9,111.3z M40.2,109.3
			l-1.9-4.8l4.8-1.9c-0.2,1.2-0.4,2.5-0.9,3.7C41.6,107.3,40.9,108.3,40.2,109.3z"/>
	</g>
</g>
</svg>
